<svg width="27" height="25" viewBox="0 0 27 25" fill="none" xmlns="http://www.w3.org/2000/svg">
<path d="M26.1273 8.80321L18.0333 7.66263L14.415 0.550211C14.3162 0.355478 14.1536 0.197836 13.9527 0.102015C13.4491 -0.139084 12.837 0.0618317 12.5851 0.550211L8.96687 7.66263L0.872797 8.80321C0.649644 8.83412 0.445618 8.93612 0.289411 9.09068C0.100566 9.27888 -0.00349683 9.53207 8.97264e-05 9.79463C0.00367629 10.0572 0.114619 10.3076 0.308539 10.4909L6.16471 16.0269L4.78116 23.8441C4.74872 24.0259 4.76947 24.2129 4.84107 24.3839C4.91267 24.5549 5.03224 24.703 5.18624 24.8115C5.34024 24.9199 5.5225 24.9844 5.71235 24.9975C5.90219 25.0106 6.09204 24.9719 6.26035 24.8857L13.5001 21.1951L20.7398 24.8857C20.9374 24.9877 21.167 25.0217 21.3869 24.9847C21.9416 24.8919 22.3146 24.3819 22.219 23.8441L20.8354 16.0269L26.6916 10.4909C26.851 10.3394 26.9562 10.1416 26.9881 9.92525C27.0741 9.38432 26.6852 8.88358 26.1273 8.80321Z" fill="#24153E"/>
</svg>
