<svg width="1089" height="206" viewBox="0 0 1089 206" fill="none" xmlns="http://www.w3.org/2000/svg">
<path d="M106.35 165H76.95L37.8 105.9V165H8.4V59.25H37.8L76.95 119.1V59.25H106.35V165ZM152.497 92.55C154.797 88.65 158.047 85.55 162.247 83.25C166.447 80.95 171.397 79.8 177.097 79.8C183.797 79.8 189.847 81.55 195.247 85.05C200.747 88.55 205.047 93.55 208.147 100.05C211.347 106.55 212.947 114.15 212.947 122.85C212.947 131.55 211.347 139.2 208.147 145.8C205.047 152.3 200.747 157.3 195.247 160.8C189.847 164.3 183.797 166.05 177.097 166.05C171.397 166.05 166.447 164.9 162.247 162.6C158.147 160.3 154.897 157.2 152.497 153.3V205.2H123.097V80.85H152.497V92.55ZM183.097 122.85C183.097 117.35 181.597 113.1 178.597 110.1C175.697 107 172.097 105.45 167.797 105.45C163.497 105.45 159.847 107 156.847 110.1C153.947 113.2 152.497 117.45 152.497 122.85C152.497 128.35 153.947 132.65 156.847 135.75C159.847 138.85 163.497 140.4 167.797 140.4C172.097 140.4 175.697 138.85 178.597 135.75C181.597 132.55 183.097 128.25 183.097 122.85ZM277.55 165L262.4 143.85L250.4 165H218.15L246.2 121.35L216.95 80.85H249.95L265.1 102L277.25 80.85H309.5L280.85 123.75L310.55 165H277.55Z" fill="#21153B"/>
<line x1="329" y1="122" x2="1053" y2="122" stroke="url(#paint0_linear)" stroke-width="6" stroke-linecap="round" stroke-linejoin="round"/>
<path d="M1088.13 115.803L1080.03 114.663L1076.41 107.55C1076.32 107.355 1076.15 107.198 1075.95 107.102C1075.45 106.861 1074.84 107.062 1074.59 107.55L1070.97 114.663L1062.87 115.803C1062.65 115.834 1062.45 115.936 1062.29 116.091C1062.1 116.279 1062 116.532 1062 116.795C1062 117.057 1062.11 117.308 1062.31 117.491L1068.16 123.027L1066.78 130.844C1066.75 131.026 1066.77 131.213 1066.84 131.384C1066.91 131.555 1067.03 131.703 1067.19 131.811C1067.34 131.92 1067.52 131.984 1067.71 131.997C1067.9 132.011 1068.09 131.972 1068.26 131.886L1075.5 128.195L1082.74 131.886C1082.94 131.988 1083.17 132.022 1083.39 131.985C1083.94 131.892 1084.31 131.382 1084.22 130.844L1082.84 123.027L1088.69 117.491C1088.85 117.339 1088.96 117.142 1088.99 116.925C1089.07 116.384 1088.69 115.884 1088.13 115.803Z" fill="#24153E"/>
<defs>
<linearGradient id="paint0_linear" x1="1068.93" y1="124.998" x2="326" y2="125.001" gradientUnits="userSpaceOnUse">
<stop stop-color="#21153B"/>
<stop offset="1" stop-opacity="0"/>
</linearGradient>
</defs>
</svg>
