<svg width="1440" height="500" viewBox="0 0 1440 500" fill="none" xmlns="http://www.w3.org/2000/svg">
<path d="M309.177 95.5724L227.238 127.726C226.539 128 226.38 128.918 226.946 129.411L287.108 181.793C287.326 181.983 287.616 182.069 287.903 182.029L377.102 169.583C377.904 169.471 378.248 168.501 377.694 167.909L310.273 95.8203C309.993 95.521 309.558 95.4227 309.177 95.5724Z" fill="#D897A9"/>
<path d="M598.884 110.875L493.87 176.182C493.409 176.469 493.178 176.613 493.052 176.839C492.926 177.066 492.926 177.337 492.926 177.881V233.832C492.926 234.785 492.926 235.262 493.223 235.556C493.521 235.849 493.997 235.843 494.95 235.832L1454.46 224.15H1454.46C1454.64 224.148 1454.73 224.146 1454.82 224.129C1454.91 224.112 1454.99 224.08 1455.16 224.015L1531.8 194.298C1532.42 194.059 1532.72 193.939 1532.9 193.684C1533.07 193.428 1533.07 193.097 1533.07 192.434V8.65226C1533.07 5.2518 1533.07 3.55158 1532.3 3.37188C1531.53 3.19219 1530.78 4.71843 1529.28 7.77091L1490.78 86.1938C1490.39 86.9894 1490.2 87.3872 1489.83 87.5272C1489.46 87.6672 1489.05 87.4992 1488.23 87.1631L1458.78 75.0953C1458.16 74.8385 1457.84 74.7101 1457.53 74.7796C1457.23 74.849 1457 75.0995 1456.54 75.6006L1367.54 173.503C1367.27 173.802 1367.13 173.951 1366.96 174.035C1366.78 174.12 1366.58 174.131 1366.18 174.155L1118.33 188.453C1118.1 188.467 1117.98 188.473 1117.87 188.454C1117.76 188.435 1117.65 188.39 1117.44 188.301L970.13 126.526C969.746 126.365 969.553 126.284 969.351 126.285C969.148 126.285 968.956 126.367 968.573 126.53L851.569 176.375C851.115 176.568 850.888 176.665 850.651 176.65C850.414 176.635 850.201 176.51 849.775 176.261L785.637 138.716C785.404 138.58 785.288 138.512 785.159 138.477C785.031 138.442 784.896 138.442 784.626 138.442H756.03C755.698 138.442 755.531 138.442 755.376 138.39C755.221 138.338 755.089 138.238 754.823 138.037L680.005 81.404C679.383 80.9326 679.071 80.6969 678.715 80.7098C678.36 80.7227 678.066 80.9802 677.479 81.4953L677.479 81.4954L627.635 125.236C627.106 125.701 626.841 125.933 626.516 125.962C626.192 125.991 625.89 125.81 625.287 125.448L600.97 110.858C600.46 110.552 600.205 110.399 599.923 110.401C599.642 110.403 599.39 110.561 598.885 110.875L598.884 110.875Z" fill="url(#paint0_linear)"/>
<path d="M154.66 65.1376L71.5255 142.627C70.6968 143.4 70.2824 143.786 70.3135 144.26C70.3446 144.733 70.8059 145.062 71.7285 145.719L246.86 270.513L246.86 270.513C247.189 270.748 247.354 270.866 247.546 270.911C247.738 270.955 247.938 270.923 248.338 270.859L382.709 249.254C382.987 249.21 383.126 249.187 383.264 249.203C383.402 249.219 383.532 249.273 383.792 249.381L608.448 342.415C608.964 342.629 609.221 342.735 609.484 342.702C609.748 342.668 609.971 342.501 610.416 342.165L658.339 306.094C658.67 305.845 658.835 305.721 659.03 305.672C659.225 305.622 659.429 305.653 659.838 305.714L758.316 320.459C758.434 320.477 758.493 320.486 758.553 320.488C758.612 320.489 758.672 320.484 758.791 320.474L1061.76 293.366C1061.87 293.356 1061.92 293.351 1061.97 293.352C1062.03 293.353 1062.08 293.36 1062.19 293.373L1214.25 312.447C1214.5 312.479 1214.62 312.494 1214.74 312.479C1214.87 312.464 1214.99 312.419 1215.22 312.328L1452.77 220.355C1453.95 219.899 1454.54 219.67 1454.67 219.175C1454.8 218.68 1454.4 218.192 1453.59 217.217L1358.33 101.879C1357.66 101.058 1357.32 100.647 1356.86 100.634C1356.41 100.622 1356.05 101.012 1355.32 101.794L1291.41 170.863C1291.14 171.151 1291.01 171.295 1290.84 171.377C1290.66 171.46 1290.47 171.473 1290.08 171.5L985.009 192.155C984.636 192.18 984.45 192.193 984.275 192.14C984.1 192.087 983.952 191.974 983.656 191.746L939.992 158.237C939.274 157.686 938.916 157.411 938.517 157.454C938.119 157.497 937.827 157.843 937.245 158.535L890.812 213.642C890.433 214.091 890.244 214.315 889.981 214.405C889.718 214.495 889.431 214.432 888.857 214.307L717.124 176.905C716.814 176.838 716.659 176.804 716.504 176.819C716.349 176.833 716.203 176.896 715.912 177.02L628.808 214.276C628.475 214.418 628.308 214.489 628.131 214.499C627.954 214.508 627.781 214.455 627.435 214.349L441.172 157.2C440.966 157.137 440.863 157.105 440.757 157.096C440.651 157.087 440.544 157.101 440.33 157.128L288.334 176.656C287.899 176.712 287.682 176.739 287.479 176.679C287.275 176.618 287.109 176.475 286.776 176.19L157.327 65.0829C156.681 64.5287 156.358 64.2515 155.976 64.2594C155.594 64.2672 155.283 64.5573 154.66 65.1376Z" fill="url(#paint1_linear)"/>
<path d="M246.859 253.478L3.16215 79.4834C1.77715 78.4946 1.08466 78.0001 0.542328 78.2793C0 78.5585 0 79.4093 0 81.1111V497.354C0 498.296 0 498.768 0.292893 499.061C0.585786 499.354 1.05719 499.354 2 499.354H607.504C608.447 499.354 608.918 499.354 609.211 499.061C609.504 498.768 609.504 498.296 609.504 497.354V326.625C609.504 325.976 609.504 325.652 609.335 325.399C609.165 325.146 608.865 325.023 608.265 324.776L383.791 232.345C383.531 232.238 383.402 232.185 383.264 232.169C383.127 232.153 382.988 232.175 382.712 232.22L248.339 253.825C247.939 253.889 247.738 253.921 247.546 253.876C247.354 253.831 247.189 253.713 246.859 253.478Z" fill="url(#paint2_linear)"/>
<path d="M658.291 254.563L381.441 495.843C379.75 497.317 378.905 498.054 379.148 498.703C379.391 499.353 380.513 499.352 382.756 499.351H382.756L1531.61 498.735C1532.55 498.734 1533.02 498.734 1533.31 498.441C1533.61 498.148 1533.61 497.677 1533.61 496.735V121.31C1533.61 119.915 1533.61 119.218 1533.15 118.922C1532.69 118.627 1532.06 118.913 1530.79 119.487L1530.79 119.487L1215.28 261.753C1215.02 261.873 1214.88 261.932 1214.74 261.952C1214.6 261.972 1214.46 261.951 1214.17 261.909L1062.22 239.719C1062.1 239.701 1062.04 239.692 1061.97 239.691C1061.91 239.69 1061.85 239.696 1061.72 239.709L758.829 271.261L758.829 271.261C758.691 271.275 758.622 271.282 758.553 271.28C758.484 271.278 758.416 271.266 758.279 271.242L758.279 271.242L659.948 254.101C659.487 254.02 659.256 253.98 659.038 254.041C658.82 254.102 658.644 254.255 658.291 254.563Z" fill="url(#paint3_linear)"/>
<path d="M659.262 436.887L478.168 495.089C473.569 496.567 471.269 497.306 471.402 498.152C471.535 498.997 473.95 498.996 478.781 498.993L1532 498.441C1532.94 498.441 1533.41 498.441 1533.71 498.148C1534 497.855 1534 497.384 1534 496.441V238.707C1534 237.468 1534 236.849 1533.59 236.549C1533.19 236.249 1532.6 236.431 1531.41 236.795L1286.87 311.968C1286.65 312.035 1286.54 312.068 1286.43 312.076C1286.32 312.085 1286.21 312.067 1285.98 312.033L1067.08 278.608C1066.82 278.568 1066.68 278.548 1066.55 278.563C1066.42 278.577 1066.3 278.625 1066.05 278.721L659.262 436.887Z" fill="url(#paint4_linear)"/>
<defs>
<linearGradient id="paint0_linear" x1="1493.68" y1="-60.1122" x2="620.15" y2="253.955" gradientUnits="userSpaceOnUse">
<stop stop-color="#C97FE2"/>
<stop offset="0.491021" stop-color="#FF594F"/>
<stop offset="0.732053" stop-color="#38368F"/>
<stop offset="1" stop-color="#E2857F"/>
</linearGradient>
<linearGradient id="paint1_linear" x1="962.43" y1="-225.663" x2="762.545" y2="342.852" gradientUnits="userSpaceOnUse">
<stop stop-color="#CA7E5D"/>
<stop offset="1" stop-color="#553072"/>
</linearGradient>
<linearGradient id="paint2_linear" x1="463.649" y1="60.1915" x2="35.6653" y2="556.312" gradientUnits="userSpaceOnUse">
<stop stop-color="#3E2361"/>
<stop offset="1" stop-color="#040615"/>
</linearGradient>
<linearGradient id="paint3_linear" x1="1062.51" y1="250.838" x2="271.063" y2="489.522" gradientUnits="userSpaceOnUse">
<stop stop-color="#341B55"/>
<stop offset="1" stop-color="#4E2B7B"/>
</linearGradient>
<linearGradient id="paint4_linear" x1="1072.41" y1="274.611" x2="1334.96" y2="686.049" gradientUnits="userSpaceOnUse">
<stop stop-color="#220F40"/>
<stop offset="1" stop-color="#34244F"/>
</linearGradient>
</defs>
</svg>
