<svg width="447" height="140" viewBox="0 0 447 140" fill="none" xmlns="http://www.w3.org/2000/svg">
<path d="M0 6C0 -16.0914 17.9086 -34 40 -34H449C471.091 -34 489 -16.0914 489 6V80C489 102.091 471.091 120 449 120H40C17.9086 120 0 102.091 0 80V6Z" fill="#21153B" fill-opacity="0.5"/>
<path d="M59.09 30.946V47H55.87V36.558L51.569 47H49.131L44.807 36.558V47H41.587V30.946H45.244L50.35 42.883L55.456 30.946H59.09ZM74.1185 40.353C74.1185 40.813 74.0879 41.227 74.0265 41.595H64.7115C64.7882 42.515 65.1102 43.2357 65.6775 43.757C66.2449 44.2783 66.9425 44.539 67.7705 44.539C68.9665 44.539 69.8175 44.0253 70.3235 42.998H73.7965C73.4285 44.2247 72.7232 45.2367 71.6805 46.034C70.6379 46.816 69.3575 47.207 67.8395 47.207C66.6129 47.207 65.5089 46.9387 64.5275 46.402C63.5615 45.85 62.8025 45.0757 62.2505 44.079C61.7139 43.0823 61.4455 41.9323 61.4455 40.629C61.4455 39.3103 61.7139 38.1527 62.2505 37.156C62.7872 36.1593 63.5385 35.3927 64.5045 34.856C65.4705 34.3193 66.5822 34.051 67.8395 34.051C69.0509 34.051 70.1319 34.3117 71.0825 34.833C72.0485 35.3543 72.7922 36.098 73.3135 37.064C73.8502 38.0147 74.1185 39.111 74.1185 40.353ZM70.7835 39.433C70.7682 38.605 70.4692 37.9457 69.8865 37.455C69.3039 36.949 68.5909 36.696 67.7475 36.696C66.9502 36.696 66.2755 36.9413 65.7235 37.432C65.1869 37.9073 64.8572 38.5743 64.7345 39.433H70.7835ZM70.3005 30.9L65.0105 33.315V31.015L70.3005 28.278V30.9ZM80.2178 36.903V43.067C80.2178 43.4963 80.3175 43.8107 80.5168 44.01C80.7315 44.194 81.0842 44.286 81.5748 44.286H83.0698V47H81.0458C78.3318 47 76.9748 45.6813 76.9748 43.044V36.903H75.4568V34.258H76.9748V31.107H80.2178V34.258H83.0698V36.903H80.2178ZM91.0438 47.207C89.8172 47.207 88.7132 46.9387 87.7318 46.402C86.7505 45.85 85.9762 45.0757 85.4088 44.079C84.8568 43.0823 84.5808 41.9323 84.5808 40.629C84.5808 39.3257 84.8645 38.1757 85.4318 37.179C86.0145 36.1823 86.8042 35.4157 87.8008 34.879C88.7975 34.327 89.9092 34.051 91.1358 34.051C92.3625 34.051 93.4742 34.327 94.4708 34.879C95.4675 35.4157 96.2495 36.1823 96.8168 37.179C97.3995 38.1757 97.6908 39.3257 97.6908 40.629C97.6908 41.9323 97.3918 43.0823 96.7938 44.079C96.2112 45.0757 95.4138 45.85 94.4018 46.402C93.4052 46.9387 92.2858 47.207 91.0438 47.207ZM91.0438 44.401C91.6265 44.401 92.1708 44.263 92.6768 43.987C93.1982 43.6957 93.6122 43.2663 93.9188 42.699C94.2255 42.1317 94.3788 41.4417 94.3788 40.629C94.3788 39.4177 94.0568 38.49 93.4128 37.846C92.7842 37.1867 92.0098 36.857 91.0898 36.857C90.1698 36.857 89.3955 37.1867 88.7668 37.846C88.1535 38.49 87.8468 39.4177 87.8468 40.629C87.8468 41.8403 88.1458 42.7757 88.7438 43.435C89.3572 44.079 90.1238 44.401 91.0438 44.401ZM99.2248 40.583C99.2248 39.295 99.4778 38.1527 99.9838 37.156C100.505 36.1593 101.21 35.3927 102.1 34.856C102.989 34.3193 103.978 34.051 105.067 34.051C105.895 34.051 106.684 34.235 107.436 34.603C108.187 34.9557 108.785 35.431 109.23 36.029V29.98H112.496V47H109.23V45.114C108.831 45.7427 108.271 46.2487 107.551 46.632C106.83 47.0153 105.994 47.207 105.044 47.207C103.97 47.207 102.989 46.931 102.1 46.379C101.21 45.827 100.505 45.0527 99.9838 44.056C99.4778 43.044 99.2248 41.8863 99.2248 40.583ZM109.253 40.629C109.253 39.847 109.099 39.18 108.793 38.628C108.486 38.0607 108.072 37.6313 107.551 37.34C107.029 37.0333 106.47 36.88 105.872 36.88C105.274 36.88 104.722 37.0257 104.216 37.317C103.71 37.6083 103.296 38.0377 102.974 38.605C102.667 39.157 102.514 39.8163 102.514 40.583C102.514 41.3497 102.667 42.0243 102.974 42.607C103.296 43.1743 103.71 43.6113 104.216 43.918C104.737 44.2247 105.289 44.378 105.872 44.378C106.47 44.378 107.029 44.2323 107.551 43.941C108.072 43.6343 108.486 43.205 108.793 42.653C109.099 42.0857 109.253 41.411 109.253 40.629ZM121.299 47.207C120.072 47.207 118.968 46.9387 117.987 46.402C117.005 45.85 116.231 45.0757 115.664 44.079C115.112 43.0823 114.836 41.9323 114.836 40.629C114.836 39.3257 115.119 38.1757 115.687 37.179C116.269 36.1823 117.059 35.4157 118.056 34.879C119.052 34.327 120.164 34.051 121.391 34.051C122.617 34.051 123.729 34.327 124.726 34.879C125.722 35.4157 126.504 36.1823 127.072 37.179C127.654 38.1757 127.946 39.3257 127.946 40.629C127.946 41.9323 127.647 43.0823 127.049 44.079C126.466 45.0757 125.669 45.85 124.657 46.402C123.66 46.9387 122.541 47.207 121.299 47.207ZM121.299 44.401C121.881 44.401 122.426 44.263 122.932 43.987C123.453 43.6957 123.867 43.2663 124.174 42.699C124.48 42.1317 124.634 41.4417 124.634 40.629C124.634 39.4177 124.312 38.49 123.668 37.846C123.039 37.1867 122.265 36.857 121.345 36.857C120.425 36.857 119.65 37.1867 119.022 37.846C118.408 38.49 118.102 39.4177 118.102 40.629C118.102 41.8403 118.401 42.7757 118.999 43.435C119.612 44.079 120.379 44.401 121.299 44.401ZM135.184 47.207C134.141 47.207 133.206 47.023 132.378 46.655C131.55 46.2717 130.89 45.758 130.4 45.114C129.924 44.47 129.664 43.757 129.618 42.975H132.861C132.922 43.4657 133.16 43.872 133.574 44.194C134.003 44.516 134.532 44.677 135.161 44.677C135.774 44.677 136.249 44.5543 136.587 44.309C136.939 44.0637 137.116 43.7493 137.116 43.366C137.116 42.952 136.901 42.6453 136.472 42.446C136.058 42.2313 135.391 42.0013 134.471 41.756C133.52 41.526 132.738 41.2883 132.125 41.043C131.527 40.7977 131.005 40.422 130.561 39.916C130.131 39.41 129.917 38.7277 129.917 37.869C129.917 37.1637 130.116 36.5197 130.515 35.937C130.929 35.3543 131.511 34.8943 132.263 34.557C133.029 34.2197 133.926 34.051 134.954 34.051C136.472 34.051 137.683 34.4343 138.588 35.201C139.492 35.9523 139.991 36.972 140.083 38.26H137.001C136.955 37.754 136.74 37.3553 136.357 37.064C135.989 36.7573 135.49 36.604 134.862 36.604C134.279 36.604 133.827 36.7113 133.505 36.926C133.198 37.1407 133.045 37.4397 133.045 37.823C133.045 38.2523 133.259 38.582 133.689 38.812C134.118 39.0267 134.785 39.249 135.69 39.479C136.61 39.709 137.369 39.9467 137.967 40.192C138.565 40.4373 139.078 40.8207 139.508 41.342C139.952 41.848 140.182 42.5227 140.198 43.366C140.198 44.102 139.991 44.7613 139.577 45.344C139.178 45.9267 138.595 46.3867 137.829 46.724C137.077 47.046 136.196 47.207 135.184 47.207ZM147.493 40.583C147.493 39.295 147.746 38.1527 148.252 37.156C148.774 36.1593 149.479 35.3927 150.368 34.856C151.258 34.3193 152.247 34.051 153.335 34.051C154.163 34.051 154.953 34.235 155.704 34.603C156.456 34.9557 157.054 35.431 157.498 36.029V29.98H160.764V47H157.498V45.114C157.1 45.7427 156.54 46.2487 155.819 46.632C155.099 47.0153 154.263 47.207 153.312 47.207C152.239 47.207 151.258 46.931 150.368 46.379C149.479 45.827 148.774 45.0527 148.252 44.056C147.746 43.044 147.493 41.8863 147.493 40.583ZM157.521 40.629C157.521 39.847 157.368 39.18 157.061 38.628C156.755 38.0607 156.341 37.6313 155.819 37.34C155.298 37.0333 154.738 36.88 154.14 36.88C153.542 36.88 152.99 37.0257 152.484 37.317C151.978 37.6083 151.564 38.0377 151.242 38.605C150.936 39.157 150.782 39.8163 150.782 40.583C150.782 41.3497 150.936 42.0243 151.242 42.607C151.564 43.1743 151.978 43.6113 152.484 43.918C153.006 44.2247 153.558 44.378 154.14 44.378C154.738 44.378 155.298 44.2323 155.819 43.941C156.341 43.6343 156.755 43.205 157.061 42.653C157.368 42.0857 157.521 41.411 157.521 40.629ZM175.754 40.353C175.754 40.813 175.724 41.227 175.662 41.595H166.347C166.424 42.515 166.746 43.2357 167.313 43.757C167.881 44.2783 168.578 44.539 169.406 44.539C170.602 44.539 171.453 44.0253 171.959 42.998H175.432C175.064 44.2247 174.359 45.2367 173.316 46.034C172.274 46.816 170.993 47.207 169.475 47.207C168.249 47.207 167.145 46.9387 166.163 46.402C165.197 45.85 164.438 45.0757 163.886 44.079C163.35 43.0823 163.081 41.9323 163.081 40.629C163.081 39.3103 163.35 38.1527 163.886 37.156C164.423 36.1593 165.174 35.3927 166.14 34.856C167.106 34.3193 168.218 34.051 169.475 34.051C170.687 34.051 171.768 34.3117 172.718 34.833C173.684 35.3543 174.428 36.098 174.949 37.064C175.486 38.0147 175.754 39.111 175.754 40.353ZM172.419 39.433C172.404 38.605 172.105 37.9457 171.522 37.455C170.94 36.949 170.227 36.696 169.383 36.696C168.586 36.696 167.911 36.9413 167.359 37.432C166.823 37.9073 166.493 38.5743 166.37 39.433H172.419ZM44.807 71.098C45.221 70.5153 45.7883 70.0323 46.509 69.649C47.245 69.2503 48.0807 69.051 49.016 69.051C50.1047 69.051 51.086 69.3193 51.96 69.856C52.8493 70.3927 53.547 71.1593 54.053 72.156C54.5743 73.1373 54.835 74.2797 54.835 75.583C54.835 76.8863 54.5743 78.044 54.053 79.056C53.547 80.0527 52.8493 80.827 51.96 81.379C51.086 81.931 50.1047 82.207 49.016 82.207C48.0807 82.207 47.2527 82.0153 46.532 81.632C45.8267 81.2487 45.2517 80.7657 44.807 80.183V88.072H41.587V69.258H44.807V71.098ZM51.546 75.583C51.546 74.8163 51.385 74.157 51.063 73.605C50.7563 73.0377 50.3423 72.6083 49.821 72.317C49.315 72.0257 48.763 71.88 48.165 71.88C47.5823 71.88 47.0303 72.0333 46.509 72.34C46.003 72.6313 45.589 73.0607 45.267 73.628C44.9603 74.1953 44.807 74.8623 44.807 75.629C44.807 76.3957 44.9603 77.0627 45.267 77.63C45.589 78.1973 46.003 78.6343 46.509 78.941C47.0303 79.2323 47.5823 79.378 48.165 79.378C48.763 79.378 49.315 79.2247 49.821 78.918C50.3423 78.6113 50.7563 78.1743 51.063 77.607C51.385 77.0397 51.546 76.365 51.546 75.583ZM56.3469 75.583C56.3469 74.295 56.5999 73.1527 57.1059 72.156C57.6272 71.1593 58.3249 70.3927 59.1989 69.856C60.0882 69.3193 61.0772 69.051 62.1659 69.051C63.1166 69.051 63.9446 69.2427 64.6499 69.626C65.3706 70.0093 65.9456 70.4923 66.3749 71.075V69.258H69.6179V82H66.3749V80.137C65.9609 80.735 65.3859 81.2333 64.6499 81.632C63.9292 82.0153 63.0936 82.207 62.1429 82.207C61.0696 82.207 60.0882 81.931 59.1989 81.379C58.3249 80.827 57.6272 80.0527 57.1059 79.056C56.5999 78.044 56.3469 76.8863 56.3469 75.583ZM66.3749 75.629C66.3749 74.847 66.2216 74.18 65.9149 73.628C65.6082 73.0607 65.1942 72.6313 64.6729 72.34C64.1516 72.0333 63.5919 71.88 62.9939 71.88C62.3959 71.88 61.8439 72.0257 61.3379 72.317C60.8319 72.6083 60.4179 73.0377 60.0959 73.605C59.7892 74.157 59.6359 74.8163 59.6359 75.583C59.6359 76.3497 59.7892 77.0243 60.0959 77.607C60.4179 78.1743 60.8319 78.6113 61.3379 78.918C61.8592 79.2247 62.4112 79.378 62.9939 79.378C63.5919 79.378 64.1516 79.2323 64.6729 78.941C65.1942 78.6343 65.6082 78.205 65.9149 77.653C66.2216 77.0857 66.3749 76.411 66.3749 75.629ZM77.7538 69.051C78.7044 69.051 79.5401 69.2427 80.2608 69.626C80.9814 69.994 81.5488 70.477 81.9628 71.075V69.258H85.2058V82.092C85.2058 83.2727 84.9681 84.323 84.4928 85.243C84.0174 86.1783 83.3044 86.9143 82.3538 87.451C81.4031 88.003 80.2531 88.279 78.9038 88.279C77.0944 88.279 75.6071 87.8573 74.4418 87.014C73.2918 86.1707 72.6401 85.0207 72.4868 83.564H75.6838C75.8524 84.1467 76.2128 84.6067 76.7648 84.944C77.3321 85.2967 78.0144 85.473 78.8118 85.473C79.7471 85.473 80.5061 85.1893 81.0888 84.622C81.6714 84.07 81.9628 83.2267 81.9628 82.092V80.114C81.5488 80.712 80.9738 81.2103 80.2378 81.609C79.5171 82.0077 78.6891 82.207 77.7538 82.207C76.6804 82.207 75.6991 81.931 74.8098 81.379C73.9204 80.827 73.2151 80.0527 72.6938 79.056C72.1878 78.044 71.9348 76.8863 71.9348 75.583C71.9348 74.295 72.1878 73.1527 72.6938 72.156C73.2151 71.1593 73.9128 70.3927 74.7868 69.856C75.6761 69.3193 76.6651 69.051 77.7538 69.051ZM81.9628 75.629C81.9628 74.847 81.8094 74.18 81.5028 73.628C81.1961 73.0607 80.7821 72.6313 80.2608 72.34C79.7394 72.0333 79.1798 71.88 78.5818 71.88C77.9838 71.88 77.4318 72.0257 76.9258 72.317C76.4198 72.6083 76.0058 73.0377 75.6838 73.605C75.3771 74.157 75.2238 74.8163 75.2238 75.583C75.2238 76.3497 75.3771 77.0243 75.6838 77.607C76.0058 78.1743 76.4198 78.6113 76.9258 78.918C77.4471 79.2247 77.9991 79.378 78.5818 79.378C79.1798 79.378 79.7394 79.2323 80.2608 78.941C80.7821 78.6343 81.1961 78.205 81.5028 77.653C81.8094 77.0857 81.9628 76.411 81.9628 75.629ZM87.5227 75.583C87.5227 74.295 87.7757 73.1527 88.2817 72.156C88.803 71.1593 89.5007 70.3927 90.3747 69.856C91.264 69.3193 92.253 69.051 93.3417 69.051C94.2923 69.051 95.1203 69.2427 95.8257 69.626C96.5463 70.0093 97.1213 70.4923 97.5507 71.075V69.258H100.794V82H97.5507V80.137C97.1367 80.735 96.5617 81.2333 95.8257 81.632C95.105 82.0153 94.2693 82.207 93.3187 82.207C92.2453 82.207 91.264 81.931 90.3747 81.379C89.5007 80.827 88.803 80.0527 88.2817 79.056C87.7757 78.044 87.5227 76.8863 87.5227 75.583ZM97.5507 75.629C97.5507 74.847 97.3973 74.18 97.0907 73.628C96.784 73.0607 96.37 72.6313 95.8487 72.34C95.3273 72.0333 94.7677 71.88 94.1697 71.88C93.5717 71.88 93.0197 72.0257 92.5137 72.317C92.0077 72.6083 91.5937 73.0377 91.2717 73.605C90.965 74.157 90.8117 74.8163 90.8117 75.583C90.8117 76.3497 90.965 77.0243 91.2717 77.607C91.5937 78.1743 92.0077 78.6113 92.5137 78.918C93.035 79.2247 93.587 79.378 94.1697 79.378C94.7677 79.378 95.3273 79.2323 95.8487 78.941C96.37 78.6343 96.784 78.205 97.0907 77.653C97.3973 77.0857 97.5507 76.411 97.5507 75.629ZM119.763 69.074C121.327 69.074 122.584 69.557 123.535 70.523C124.501 71.4737 124.984 72.8077 124.984 74.525V82H121.764V74.962C121.764 73.9653 121.511 73.2063 121.005 72.685C120.499 72.1483 119.809 71.88 118.935 71.88C118.061 71.88 117.363 72.1483 116.842 72.685C116.336 73.2063 116.083 73.9653 116.083 74.962V82H112.863V74.962C112.863 73.9653 112.61 73.2063 112.104 72.685C111.598 72.1483 110.908 71.88 110.034 71.88C109.144 71.88 108.439 72.1483 107.918 72.685C107.412 73.2063 107.159 73.9653 107.159 74.962V82H103.939V69.258H107.159V70.799C107.573 70.2623 108.102 69.8407 108.746 69.534C109.405 69.2273 110.126 69.074 110.908 69.074C111.904 69.074 112.794 69.2887 113.576 69.718C114.358 70.132 114.963 70.73 115.393 71.512C115.807 70.776 116.405 70.1857 117.187 69.741C117.984 69.2963 118.843 69.074 119.763 69.074ZM139.884 75.353C139.884 75.813 139.853 76.227 139.792 76.595H130.477C130.554 77.515 130.876 78.2357 131.443 78.757C132.01 79.2783 132.708 79.539 133.536 79.539C134.732 79.539 135.583 79.0253 136.089 77.998H139.562C139.194 79.2247 138.489 80.2367 137.446 81.034C136.403 81.816 135.123 82.207 133.605 82.207C132.378 82.207 131.274 81.9387 130.293 81.402C129.327 80.85 128.568 80.0757 128.016 79.079C127.479 78.0823 127.211 76.9323 127.211 75.629C127.211 74.3103 127.479 73.1527 128.016 72.156C128.553 71.1593 129.304 70.3927 130.27 69.856C131.236 69.3193 132.348 69.051 133.605 69.051C134.816 69.051 135.897 69.3117 136.848 69.833C137.814 70.3543 138.558 71.098 139.079 72.064C139.616 73.0147 139.884 74.111 139.884 75.353ZM136.549 74.433C136.534 73.605 136.235 72.9457 135.652 72.455C135.069 71.949 134.356 71.696 133.513 71.696C132.716 71.696 132.041 71.9413 131.489 72.432C130.952 72.9073 130.623 73.5743 130.5 74.433H136.549ZM149.295 69.074C150.813 69.074 152.04 69.557 152.975 70.523C153.911 71.4737 154.378 72.8077 154.378 74.525V82H151.158V74.962C151.158 73.95 150.905 73.1757 150.399 72.639C149.893 72.087 149.203 71.811 148.329 71.811C147.44 71.811 146.735 72.087 146.213 72.639C145.707 73.1757 145.454 73.95 145.454 74.962V82H142.234V69.258H145.454V70.845C145.884 70.293 146.428 69.8637 147.087 69.557C147.762 69.235 148.498 69.074 149.295 69.074ZM161.19 71.903V78.067C161.19 78.4963 161.289 78.8107 161.489 79.01C161.703 79.194 162.056 79.286 162.547 79.286H164.042V82H162.018C159.304 82 157.947 80.6813 157.947 78.044V71.903H156.429V69.258H157.947V66.107H161.19V69.258H164.042V71.903H161.19ZM172.016 82.207C170.789 82.207 169.685 81.9387 168.704 81.402C167.722 80.85 166.948 80.0757 166.381 79.079C165.829 78.0823 165.553 76.9323 165.553 75.629C165.553 74.3257 165.836 73.1757 166.404 72.179C166.986 71.1823 167.776 70.4157 168.773 69.879C169.769 69.327 170.881 69.051 172.108 69.051C173.334 69.051 174.446 69.327 175.443 69.879C176.439 70.4157 177.221 71.1823 177.789 72.179C178.371 73.1757 178.663 74.3257 178.663 75.629C178.663 76.9323 178.364 78.0823 177.766 79.079C177.183 80.0757 176.386 80.85 175.374 81.402C174.377 81.9387 173.258 82.207 172.016 82.207ZM172.016 79.401C172.598 79.401 173.143 79.263 173.649 78.987C174.17 78.6957 174.584 78.2663 174.891 77.699C175.197 77.1317 175.351 76.4417 175.351 75.629C175.351 74.4177 175.029 73.49 174.385 72.846C173.756 72.1867 172.982 71.857 172.062 71.857C171.142 71.857 170.367 72.1867 169.739 72.846C169.125 73.49 168.819 74.4177 168.819 75.629C168.819 76.8403 169.118 77.7757 169.716 78.435C170.329 79.079 171.096 79.401 172.016 79.401Z" fill="#E5E5E5"/>
<path fill-rule="evenodd" clip-rule="evenodd" d="M341.182 61H348.626V67.9866H341.182V61ZM342.466 62.2046H347.342V66.7819H342.466V62.2046ZM343.631 63.2979H346.178V65.6887H343.631V63.2979ZM328.893 64.7824H332.919C336.223 64.7824 338.925 67.319 338.925 70.4196V70.4197C338.925 73.5203 336.223 76.057 332.919 76.057H328.893V80.3945H325V76.057V67.5288H328.893V64.7824ZM328.893 67.5445V73.2948H332.219C333.904 73.2948 335.283 72.0011 335.283 70.4197V70.4196C335.283 68.8382 333.904 67.5445 332.219 67.5445H328.893ZM341.182 70.3874H345.076V80.3945H341.182V70.3874ZM365.796 64.7824H369.823C373.126 64.7824 375.828 67.319 375.828 70.4196V70.4197C375.828 73.5203 373.126 76.057 369.823 76.057H365.796V80.3945H361.903V76.057V67.5288H365.796V64.7824ZM365.796 67.5445V73.2948H369.123C370.807 73.2948 372.186 72.0011 372.186 70.4197V70.4196C372.186 68.8382 370.807 67.5445 369.123 67.5445H365.796ZM354.122 68.2575C356.336 68.2575 358.299 69.2403 359.523 70.7561L357.408 72.7411C356.824 71.7041 355.717 71.004 354.448 71.004C352.569 71.004 351.047 72.5349 351.047 74.4231C351.047 76.3114 352.569 77.8422 354.448 77.8422C355.717 77.8422 356.824 77.1421 357.408 76.1051L359.523 78.0901C358.299 79.6059 356.336 80.5887 354.122 80.5887C350.412 80.5887 347.405 77.8282 347.405 74.4231C347.405 71.018 350.412 68.2575 354.122 68.2575ZM392.797 85.037H396.618L403.614 68.4086H399.793L396.585 76.0351L393.376 68.4086H389.555L394.674 80.5759L392.797 85.037ZM388.629 80.1463H385.097V79.2226C380.899 81.796 377.385 80.1113 376.963 77.5731C376.492 74.7375 378.32 72.6796 385.445 73.245C385.459 70.694 381.417 70.361 378.671 72.1582L377.397 69.7672C382.435 67.2445 388.609 68.0151 388.629 72.2125V80.1463ZM385.56 75.147H382.55C379.536 75.147 380.196 78.8263 383.071 78.2444C384.551 77.9449 385.466 77.0235 385.56 75.147Z" fill="#21A73F"/>
<path d="M242.284 33.1704C230.453 33.1704 220.864 38.9293 220.864 46.0338C220.864 53.1377 230.453 58.8966 242.284 58.8966C254.115 58.8966 263.705 53.1377 263.705 46.0338C263.705 38.9293 254.115 33.1704 242.284 33.1704Z" fill="#4CB6EB"/>
<path d="M339.318 44.348C338.927 44.8343 338.369 45.0773 337.639 45.0773C336.911 45.0773 336.35 44.8343 335.957 44.348C335.563 43.8623 335.367 43.1707 335.367 42.2746C335.367 41.3797 335.563 40.6898 335.957 40.2064C336.35 39.7232 336.911 39.4814 337.639 39.4814C338.369 39.4814 338.927 39.7232 339.318 40.2064C339.707 40.6898 339.903 41.3797 339.903 42.2746C339.903 43.1707 339.707 43.8623 339.318 44.348ZM341.31 38.9231C340.506 37.977 339.285 37.5046 337.647 37.5046C336.011 37.5046 334.79 37.977 333.986 38.9231C333.181 39.8681 332.779 40.9855 332.779 42.2746C332.779 43.5866 333.181 44.708 333.986 45.6415C334.79 46.5716 336.011 47.0386 337.647 47.0386C339.285 47.0386 340.506 46.5716 341.31 45.6415C342.115 44.708 342.516 43.5866 342.516 42.2746C342.516 40.9855 342.115 39.8681 341.31 38.9231Z" fill="#283670"/>
<path d="M319.492 43.244C319.476 44.0285 319.236 44.569 318.776 44.8653C318.316 45.1618 317.813 45.3103 317.268 45.3103C316.923 45.3103 316.631 45.2203 316.39 45.0424C316.15 44.864 316.031 44.5743 316.031 44.1736C316.031 43.7241 316.227 43.3925 316.62 43.1781C316.854 43.0525 317.236 42.9442 317.769 42.8584L318.339 42.7592C318.622 42.7086 318.845 42.6548 319.008 42.5968C319.173 42.5406 319.332 42.4662 319.492 42.3717V43.244ZM320.759 38.1321C319.944 37.7441 319.01 37.5482 317.96 37.5482C316.346 37.5482 315.206 37.9439 314.543 38.7331C314.126 39.2386 313.892 39.8829 313.837 40.6676H316.249C316.309 40.3213 316.427 40.0471 316.605 39.8445C316.854 39.5701 317.277 39.4332 317.875 39.4332C318.409 39.4332 318.813 39.502 319.089 39.6435C319.364 39.783 319.503 40.0372 319.503 40.404C319.503 40.7063 319.324 40.9276 318.963 41.0712C318.763 41.1536 318.43 41.2221 317.964 41.2767L317.109 41.3756C316.138 41.4904 315.4 41.6833 314.901 41.9525C313.987 42.4464 313.532 43.244 313.532 44.3472C313.532 45.1968 313.814 45.8546 314.383 46.3182C314.949 46.7818 315.67 46.9762 316.539 47.0142C321.994 47.2428 321.933 44.316 321.983 43.7073V40.3383C321.983 39.2581 321.574 38.5221 320.759 38.1321Z" fill="#283670"/>
<path d="M308.321 39.5548C308.945 39.5548 309.402 39.7356 309.698 40.0968C309.901 40.3642 310.028 40.6656 310.078 40.9998H312.768C312.62 39.7257 312.145 38.8361 311.344 38.3322C310.539 37.8305 309.509 37.5776 308.249 37.5776C306.767 37.5776 305.602 38.0049 304.762 38.8576C303.919 39.7117 303.498 40.9051 303.498 42.4393C303.498 43.7978 303.879 44.9052 304.641 45.7586C305.404 46.6114 306.594 47.0386 308.21 47.0386C309.828 47.0386 311.05 46.527 311.873 45.5039C312.389 44.8699 312.679 44.1967 312.739 43.4851H310.058C310.003 43.9555 309.847 44.3391 309.587 44.6346C309.329 44.9287 308.893 45.0773 308.276 45.0773C307.407 45.0773 306.816 44.7057 306.502 43.9605C306.33 43.563 306.243 43.0368 306.243 42.382C306.243 41.695 306.33 41.1444 306.502 40.728C306.829 39.9467 307.436 39.5548 308.321 39.5548Z" fill="#283670"/>
<path d="M302.777 37.5776C297.249 37.5776 297.577 42.1711 297.577 42.1711V46.8371H300.085V42.4606C300.085 41.7436 300.182 41.2126 300.372 40.8673C300.717 40.2553 301.389 39.9482 302.392 39.9482C302.468 39.9482 302.567 39.9521 302.689 39.9574C302.811 39.963 302.95 39.9733 303.11 39.9906V37.5953C302.998 37.5881 302.926 37.5853 302.895 37.5823C302.863 37.5796 302.823 37.5776 302.777 37.5776Z" fill="#283670"/>
<path d="M290.191 40.0156C290.545 39.6756 291.04 39.5049 291.679 39.5049C292.267 39.5049 292.759 39.6648 293.157 39.9871C293.553 40.308 293.775 40.7799 293.82 41.3994H289.528C289.618 40.8172 289.84 40.3565 290.191 40.0156ZM293.563 44.3991C293.458 44.5401 293.345 44.661 293.22 44.7551C292.865 45.029 292.384 45.1122 291.818 45.1122C291.282 45.1122 290.862 45.0361 290.483 44.8114C289.857 44.4504 289.505 43.8393 289.467 42.9424H296.407C296.417 42.1704 296.39 41.5791 296.324 41.1676C296.208 40.4671 295.955 39.8497 295.565 39.3184C295.133 38.7159 294.582 38.2749 293.918 37.9947C293.254 37.7166 292.508 37.5769 291.679 37.5769C290.282 37.5769 289.147 37.9903 288.272 38.8162C287.397 39.644 286.958 40.8307 286.958 42.38C286.958 44.0338 287.443 45.2273 288.413 45.9607C289.381 46.6941 290.502 47.0615 291.769 47.0615C293.304 47.0615 294.5 46.6267 295.353 45.7566C295.813 45.2988 296.102 44.8457 296.223 44.3991H293.563Z" fill="#283670"/>
<path d="M285.951 46.8361H283.66V41.4212C283.66 40.9263 283.486 39.7496 281.974 39.7496C280.967 39.7496 280.238 40.4318 280.238 41.4212V46.8361H277.944V41.4212C277.944 40.9263 277.788 39.7496 276.278 39.7496C275.253 39.7496 274.54 40.4318 274.54 41.4212V46.8361H272.248V41.4727C272.248 39.2368 273.828 37.5464 276.278 37.5464C277.494 37.5464 278.483 38.0256 279.126 38.7935C279.803 38.0256 280.81 37.5464 281.974 37.5464C284.475 37.5464 285.951 39.1683 285.951 41.4727V46.8361Z" fill="#283670"/>
<path d="M329.025 44.3674C328.659 44.8601 328.12 45.106 327.417 45.106C326.711 45.106 326.185 44.8578 325.839 44.3633C325.493 43.8676 325.32 43.1463 325.32 42.3208C325.32 41.5547 325.489 40.9134 325.83 40.3965C326.17 39.8802 326.704 39.6207 327.434 39.6207C327.912 39.6207 328.331 39.7632 328.693 40.0473C329.281 40.5181 329.576 41.3623 329.576 42.4555C329.576 43.2377 329.392 43.8749 329.025 44.3674ZM332.033 34.7497C332.033 34.7497 329.507 34.4965 329.507 36.4014L329.505 38.9233C329.225 38.5019 328.861 38.1723 328.413 37.935C327.965 37.6973 327.452 37.5776 326.874 37.5776C325.621 37.5776 324.622 38.0155 323.873 38.8904C323.123 39.7661 322.75 41.0278 322.75 42.5534C322.75 43.8773 323.13 44.9628 323.89 45.8081C324.651 46.652 326.142 47.0227 327.466 47.0227C332.084 47.0227 332.031 43.3051 332.031 43.3051L332.033 34.7497Z" fill="#283670"/>
<path d="M278.959 55.4085C278.959 54.5208 278.775 53.8386 278.405 53.3596C278.036 52.8834 277.508 52.6422 276.819 52.6422C276.157 52.6422 275.64 52.8834 275.27 53.3596C274.927 53.7927 274.756 54.4776 274.756 55.4085C274.756 56.2764 274.939 56.9226 275.308 57.3555C275.676 57.8345 276.205 58.0731 276.894 58.0731C277.532 58.0731 278.036 57.8345 278.405 57.3555C278.775 56.8776 278.959 56.2306 278.959 55.4085ZM274.756 61.7789C274.756 62.0975 274.632 62.3711 274.385 62.5981C274.14 62.8261 273.845 62.9399 273.501 62.9399H272.248V54.7592C272.248 53.1682 272.819 52.1718 273.759 51.4984C274.381 51.0533 275.307 50.6286 277.041 50.6286C278.212 50.6286 279.583 51.0551 280.324 51.9028C281.155 52.8564 281.502 53.9186 281.502 55.3062C281.502 56.7415 281.133 57.8995 280.396 58.7896C279.659 59.6556 278.712 60.087 277.557 60.087C276.942 60.087 276.402 59.9844 275.935 59.7808C275.442 59.5525 275.05 59.2 274.756 58.7213V61.7789Z" fill="#49BFE8"/>
<path d="M293.992 55.4098C293.992 56.979 294.475 57.8485 295.441 58.0207C296.405 58.1884 297.118 57.9783 297.577 57.3879C297.795 57.1393 297.951 56.7454 298.048 56.212C298.143 55.6778 298.151 55.1485 298.066 54.6257C297.983 54.1013 297.782 53.635 297.468 53.2254C297.155 52.8169 296.696 52.6112 296.092 52.6112C295.271 52.6112 294.717 52.8969 294.427 53.4631C294.135 54.033 293.992 54.6811 293.992 55.4098ZM298.121 59.3327V58.7546C297.686 59.3927 297.1 59.7881 296.364 59.9487C295.627 60.1068 294.897 60.0502 294.174 59.7767C293.449 59.5048 292.826 58.9981 292.307 58.2598C291.789 57.5182 291.53 56.5461 291.53 55.34C291.53 53.9316 291.874 52.7871 292.561 51.9118C293.25 51.0365 294.355 50.6369 295.875 50.5979C297.374 50.5608 298.245 50.8791 299.098 51.4854C300.031 52.15 300.583 53.1696 300.583 54.7606V59.5736C300.586 61.1052 299.449 63.9435 295.875 63.7028C293.662 63.5522 292.433 62.6996 291.747 60.768H294.391C294.584 61.0855 294.879 61.3302 295.279 61.4994C295.675 61.6724 296.076 61.7165 296.472 61.6367C296.87 61.5574 297.232 61.3346 297.56 60.9722C297.885 60.608 298.071 60.0613 298.121 59.3327Z" fill="#49BFE8"/>
<path d="M288.117 56.3589C288.101 57.1443 287.861 57.6835 287.402 57.9803C286.942 58.2763 286.44 58.4245 285.894 58.4245C285.549 58.4245 285.257 58.3348 285.017 58.1571C284.776 57.9793 284.655 57.6889 284.655 57.2882C284.655 56.8392 284.852 56.5071 285.246 56.2926C285.48 56.167 285.861 56.0591 286.395 55.9734L286.964 55.874C287.249 55.8234 287.472 55.7702 287.633 55.712C287.798 55.6558 287.958 55.5809 288.117 55.4865V56.3589ZM289.385 51.2471C288.569 50.86 287.635 50.6637 286.586 50.6637C284.97 50.6637 283.832 51.0592 283.168 51.8481C282.752 52.3532 282.517 52.9977 282.463 53.783H284.876C284.935 53.4365 285.053 53.1623 285.231 52.9599C285.48 52.6857 285.903 52.5483 286.5 52.5483C287.036 52.5483 287.439 52.6174 287.715 52.7584C287.989 52.8983 288.128 53.1519 288.128 53.5197C288.128 53.8214 287.949 54.0436 287.589 54.1866C287.389 54.2687 287.057 54.3372 286.59 54.3921L285.735 54.4901C284.764 54.6056 284.026 54.7988 283.528 55.0674C282.613 55.561 282.157 56.3589 282.157 57.4614C282.157 58.3113 282.44 58.9692 283.009 59.4325C283.574 59.8958 284.295 60.0912 285.165 60.1288C290.619 60.3575 290.557 57.4302 290.607 56.822V53.4529C290.607 52.3723 290.2 51.6377 289.385 51.2471Z" fill="#49BFE8"/>
<path d="M308.077 57.4129C307.687 57.8994 307.128 58.1425 306.4 58.1425C305.671 58.1425 305.109 57.8994 304.717 57.4129C304.322 56.9278 304.127 56.2365 304.127 55.3409C304.127 54.4458 304.322 53.7559 304.717 53.2732C305.109 52.7889 305.671 52.5483 306.4 52.5483C307.128 52.5483 307.687 52.7889 308.077 53.2732C308.468 53.7559 308.662 54.4458 308.662 55.3409C308.662 56.2365 308.468 56.9278 308.077 57.4129ZM310.07 51.9894C309.265 51.0426 308.044 50.5708 306.406 50.5708C304.771 50.5708 303.55 51.0426 302.746 51.9894C301.941 52.9342 301.539 54.0509 301.539 55.3409C301.539 56.6526 301.941 57.7735 302.746 58.7069C303.55 59.6366 304.771 60.1034 306.406 60.1034C308.044 60.1034 309.265 59.6366 310.07 58.7069C310.874 57.7735 311.275 56.6526 311.275 55.3409C311.275 54.0509 310.874 52.9342 310.07 51.9894Z" fill="#49BFE8"/>
<path d="M242.284 58.8966C230.453 58.8966 220.863 53.1377 220.863 46.0338C220.863 38.9293 230.453 33.1704 242.284 33.1704C254.115 33.1704 263.705 38.9293 263.705 46.0338C263.705 53.1377 254.115 58.8966 242.284 58.8966ZM242.28 32.3628C229.976 32.3628 220.002 38.5054 220.002 46.0405C220.002 46.235 220 46.7731 220 46.8413C220 54.835 228.718 61.3094 242.277 61.3094C255.92 61.3094 264.558 54.8369 264.558 46.8427C264.558 46.5632 264.558 46.4026 264.558 46.0405C264.558 38.5054 254.584 32.3628 242.28 32.3628Z" fill="#293576"/>
<path d="M263.644 45.0026L263.06 45.0838L260.377 44.9619L254.668 45.5987L249.516 47.3583L249.808 40.1995L250.944 37.2143L252.015 37.1533L253.086 36.8791L255.325 36.148L256.85 35.9956L257.499 35.7136L257.24 34.6553L256.331 34.3534L256.655 33.2541L255.844 32.4924L253.702 31.2536H253.118L251.073 32.8884L248.704 35.5083L245.881 40.5651L242.081 48.6986L240.396 45.5001L235.82 36.148L235.194 35.6609L231.818 31.9645L230.628 31.2536L229.805 31.4771L227.577 33.0814L227.534 34.2796L227.079 34.4624L226.387 35.3155L227.036 35.8637L228.853 36.148L233.114 37.3368L233.321 37.4532L233.711 38.585L234.618 41.4729L234.619 47.0536L233.873 47.2059L232.348 46.6576L226.928 45.3782L224.234 45.165L220.841 45.3471C220.863 49.9629 223.371 52.0784 223.371 52.0784L224.458 51.5998L229.383 52.4064L237.053 52.2324L241.045 51.5998L242.081 50.3589L242.727 51.4646L246.681 52.4152H252.48L257.369 51.8464L259.533 51.623L260.947 52.339C264.038 49.4434 263.644 45.0026 263.644 45.0026Z" fill="white"/>
<path d="M241.64 50.6565C240.923 51.6401 239.796 51.8371 238.686 51.9029C238.168 51.9338 237.65 51.9705 237.133 52.0072C235.318 52.1359 233.441 52.2691 231.603 52.1297L231.427 52.1166C229.46 51.9678 227.426 51.8143 225.496 51.4044C224.575 51.2089 224.086 51.3286 223.558 51.8789C223.495 51.9453 223.158 52.2801 223.095 52.4863C223.07 52.5689 223.218 52.6157 223.246 52.6398C223.345 52.7236 223.828 52.275 223.917 52.182C224.322 51.7591 224.639 51.687 225.39 51.8466C227.353 52.2631 229.405 52.4182 231.388 52.5682L231.564 52.5816C232.133 52.6245 232.705 52.6421 233.276 52.6421C234.585 52.6421 235.892 52.5494 237.169 52.459C237.685 52.4224 238.201 52.386 238.716 52.3552C239.89 52.2852 241.202 52.0594 242.039 50.9123C242.114 50.8092 242.086 50.6681 241.976 50.5973C241.866 50.5266 241.716 50.5534 241.64 50.6565Z" fill="#293576"/>
<path d="M263.773 44.8977C263.709 44.7883 263.562 44.7485 263.445 44.8092C263.077 45.0009 262.72 44.9039 262.308 44.791C262.013 44.7103 261.709 44.6257 261.374 44.645C258.131 44.8184 254.835 45.4231 251.3 46.4932C250.907 46.6123 250.515 46.7472 250.136 46.8778C250.024 46.9162 249.912 46.9541 249.8 46.9922C249.81 46.7313 249.819 46.4701 249.829 46.2092C249.884 44.8118 249.94 43.3669 249.905 41.944C249.869 40.4527 250.347 39.0972 250.883 37.7251C251.004 37.4146 251.078 37.2812 251.585 37.3596C252.308 37.4728 253.124 37.1861 253.754 36.9234C254.63 36.5582 255.426 36.2604 256.313 36.2853C257.045 36.3124 257.516 35.9604 257.644 35.3061C257.807 34.4686 257.099 34.272 256.631 34.1422C256.621 34.1394 256.611 34.1413 256.601 34.1398C256.727 33.907 256.84 33.6416 256.937 33.3345C256.959 33.2631 256.943 33.1858 256.893 33.1278C256.379 32.5294 255.691 32.1143 255.025 31.7128C254.776 31.5626 254.518 31.4073 254.276 31.2458C253.735 30.8846 253.078 30.9624 252.426 31.4654C249.563 33.6745 247.331 36.6312 245.604 40.5043C245.298 41.1914 244.997 41.8813 244.697 42.5709C243.865 44.4813 243.001 46.4509 242.018 48.3379L241.351 46.9194C240.825 45.7976 240.298 44.6759 239.766 43.5563C239.495 42.9861 239.226 42.4153 238.957 41.8445C238.204 40.2464 237.425 38.5942 236.618 36.986C235.74 35.2355 234.273 33.9402 232.855 32.6876C232.37 32.2591 231.868 31.816 231.4 31.3632C230.927 30.9053 230.205 30.9337 229.895 31.1555C229.647 31.3334 229.372 31.4963 229.107 31.654C228.545 31.9875 227.964 32.3327 227.53 32.8637C227.172 33.3028 227.106 33.7768 227.31 34.1784C226.847 34.2943 226.382 34.5219 226.213 35.2623C226.194 35.3436 226.225 35.4278 226.292 35.4819C226.347 35.5263 226.413 35.5956 226.483 35.669C226.689 35.8848 226.922 36.1293 227.228 36.1413C228.076 36.1754 228.855 36.4316 229.68 36.7031C230.513 36.9772 231.374 37.2604 232.299 37.2863C232.815 37.3006 233.04 37.4148 233.156 37.7232C233.213 37.8734 233.272 38.0239 233.33 38.1744C233.584 38.8283 233.846 39.5047 233.982 40.1815C234.196 41.2552 234.161 42.3671 234.128 43.4423C234.093 44.5999 234.056 45.7947 234.325 46.9609C233.975 47.0528 233.71 46.9224 233.41 46.7744C233.277 46.7085 233.14 46.6404 232.993 46.593C230.327 45.7322 227.472 44.893 224.422 44.893C224.395 44.893 224.367 44.893 224.34 44.8932C223.541 44.8971 222.741 44.8964 221.942 44.895L220.841 44.8941C220.708 44.8941 220.6 44.9954 220.6 45.1206C220.6 45.2459 220.708 45.3472 220.841 45.3472L221.941 45.3481C222.741 45.3495 223.542 45.3502 224.342 45.3464C224.369 45.3461 224.395 45.3461 224.422 45.3461C227.397 45.3461 230.209 46.1732 232.836 47.0213C232.948 47.0577 233.063 47.1147 233.185 47.1753C233.439 47.3005 233.733 47.4461 234.094 47.4461C234.281 47.4461 234.485 47.4071 234.711 47.3065C234.815 47.2605 234.87 47.1523 234.842 47.0477C234.536 45.8799 234.573 44.7023 234.611 43.4554C234.645 42.3563 234.68 41.2195 234.456 40.0981C234.314 39.3846 234.044 38.6906 233.784 38.0192C233.726 37.8699 233.668 37.7205 233.611 37.5715C233.373 36.9427 232.793 36.8467 232.314 36.8332C231.463 36.8097 230.674 36.5502 229.839 36.2754C229.017 36.005 228.168 35.7257 227.249 35.6886C227.146 35.6845 226.963 35.4934 226.843 35.3665C226.8 35.3219 226.758 35.2783 226.717 35.2381C226.866 34.7657 227.176 34.6658 227.591 34.581C227.603 34.5784 227.612 34.5714 227.624 34.5672C227.651 34.5901 227.673 34.6149 227.702 34.637C228.233 35.0309 229.327 35.8389 230.564 35.0411C230.955 35.4906 231.387 35.9172 231.934 36.249C231.974 36.2734 232.019 36.2851 232.064 36.2851C232.144 36.2851 232.221 36.2487 232.267 36.1817C232.34 36.0766 232.308 35.9363 232.196 35.8683C231.457 35.4201 230.946 34.7839 230.405 34.1099C230.223 33.8827 230.034 33.6478 229.838 33.4227C229.753 33.3262 229.601 33.3123 229.498 33.3914C229.395 33.4708 229.38 33.6135 229.464 33.7103C229.655 33.9279 229.84 34.1591 230.02 34.3827C230.101 34.4836 230.183 34.5848 230.265 34.6859C229.494 35.1696 228.822 34.8906 228.002 34.2816C227.449 33.8711 227.709 33.3898 227.914 33.1394C228.295 32.6723 228.814 32.3636 229.365 32.0369C229.639 31.874 229.923 31.7055 230.187 31.5157C230.304 31.4322 230.751 31.3859 231.054 31.6787C231.529 32.1388 232.035 32.5856 232.524 33.0174C233.91 34.2411 235.342 35.5064 236.181 37.1788C236.986 38.7826 237.764 40.4324 238.516 42.0279C238.785 42.5991 239.054 43.1704 239.325 43.7408C239.857 44.8599 240.383 45.9811 240.91 47.1021L241.619 48.6106C241.656 48.6885 241.734 48.7352 241.818 48.7425C241.639 49.151 241.641 49.6543 241.83 50.1753C242.101 50.9247 242.708 51.5906 243.414 51.9133C243.928 52.1477 244.529 52.2917 245.202 52.3413L245.548 52.3667C247.374 52.5016 249.246 52.6398 251.118 52.6398C251.812 52.6398 252.507 52.6208 253.199 52.5757C254.928 52.4623 256.773 52.2966 258.54 51.8545C259.505 51.6139 259.968 51.863 260.485 52.4077C260.574 52.501 260.93 52.8722 261.028 52.6398C261.18 52.276 260.934 52.1997 260.846 52.1064C260.248 51.4766 259.605 51.1185 258.416 51.4169C256.688 51.8491 254.871 52.0119 253.165 52.1234C250.644 52.2889 248.073 52.0988 245.586 51.9149L245.24 51.8895C244.627 51.8447 244.084 51.7154 243.625 51.5056C243.031 51.2342 242.518 50.6688 242.287 50.0295C242.125 49.5816 242.128 49.161 242.295 48.8456C243.353 46.8524 244.263 44.763 245.143 42.7423C245.443 42.0538 245.743 41.3654 246.049 40.679C247.745 36.8759 249.932 33.9766 252.733 31.8154C253.063 31.5602 253.551 31.3174 253.997 31.6152C254.248 31.7827 254.51 31.9409 254.764 32.094C255.389 32.4707 255.981 32.8279 256.436 33.3209C256.186 34.0579 255.854 34.5141 255.423 34.7139C255.025 34.8978 254.5 34.8804 253.825 34.665C254.152 34.2668 254.441 33.8554 254.713 33.4639C254.786 33.359 254.754 33.2187 254.643 33.1504C254.531 33.0817 254.382 33.1112 254.309 33.2161C253.655 34.1569 252.913 35.2231 251.735 35.8626C251.62 35.9253 251.58 36.0637 251.647 36.1721C251.692 36.2447 251.773 36.2851 251.856 36.2851C251.897 36.2851 251.939 36.2754 251.977 36.2547C252.584 35.9247 253.076 35.4986 253.5 35.0377C254.383 35.3487 255.082 35.3767 255.636 35.1203C255.919 34.9892 256.165 34.782 256.377 34.4975C256.406 34.5331 256.444 34.5631 256.494 34.5767C257.045 34.7299 257.246 34.8252 257.169 35.2248C257.084 35.6604 256.824 35.8444 256.329 35.8328C255.345 35.7964 254.49 36.1208 253.558 36.5094C253.034 36.7278 252.268 37.0077 251.664 36.9127C250.898 36.7938 250.617 37.0883 250.43 37.569C249.877 38.9839 249.384 40.3838 249.423 41.9547C249.458 43.3637 249.401 44.8019 249.347 46.1926C249.333 46.539 249.32 46.8855 249.308 47.2318C249.281 47.2583 249.224 47.3003 249.188 47.3271C249.131 47.3686 249.075 47.4107 249.03 47.4525C248.936 47.541 248.936 47.6844 249.03 47.7729C249.078 47.8172 249.139 47.8392 249.201 47.8392C249.263 47.8392 249.325 47.8172 249.372 47.7729C249.404 47.7428 249.445 47.7136 249.485 47.684C249.557 47.631 249.638 47.5705 249.699 47.4971C249.721 47.4958 249.743 47.4936 249.765 47.4862C249.944 47.4262 250.123 47.3648 250.302 47.3032C250.677 47.1742 251.064 47.0408 251.448 46.9247C254.944 45.8663 258.2 45.2686 261.402 45.0973C261.651 45.0841 261.905 45.153 262.173 45.226C262.623 45.3491 263.134 45.4885 263.679 45.2056C263.795 45.1449 263.838 45.0072 263.773 44.8977Z" fill="#293576"/>
<path d="M201 21L201 90" stroke="#E5E5E5" stroke-width="3" stroke-linecap="round" stroke-linejoin="round"/>
</svg>
