<svg width="629" height="91" viewBox="0 0 629 91" fill="none" xmlns="http://www.w3.org/2000/svg">
<path d="M35.85 34.78C39.39 35.44 42.3 37.21 44.58 40.09C46.86 42.97 48 46.27 48 49.99C48 53.35 47.16 56.32 45.48 58.9C43.86 61.42 41.49 63.4 38.37 64.84C35.25 66.28 31.56 67 27.3 67H0.210001V4.18H26.13C30.39 4.18 34.05 4.87 37.11 6.25C40.23 7.63 42.57 9.55 44.13 12.01C45.75 14.47 46.56 17.26 46.56 20.38C46.56 24.04 45.57 27.1 43.59 29.56C41.67 32.02 39.09 33.76 35.85 34.78ZM12.81 30.1H24.33C27.33 30.1 29.64 29.44 31.26 28.12C32.88 26.74 33.69 24.79 33.69 22.27C33.69 19.75 32.88 17.8 31.26 16.42C29.64 15.04 27.33 14.35 24.33 14.35H12.81V30.1ZM25.5 56.74C28.56 56.74 30.93 56.02 32.61 54.58C34.35 53.14 35.22 51.1 35.22 48.46C35.22 45.76 34.32 43.66 32.52 42.16C30.72 40.6 28.29 39.82 25.23 39.82H12.81V56.74H25.5ZM80.182 67.81C75.382 67.81 71.062 66.76 67.222 64.66C63.382 62.5 60.352 59.47 58.132 55.57C55.972 51.67 54.892 47.17 54.892 42.07C54.892 36.97 56.002 32.47 58.222 28.57C60.502 24.67 63.592 21.67 67.492 19.57C71.392 17.41 75.742 16.33 80.542 16.33C85.342 16.33 89.692 17.41 93.592 19.57C97.492 21.67 100.552 24.67 102.772 28.57C105.052 32.47 106.192 36.97 106.192 42.07C106.192 47.17 105.022 51.67 102.682 55.57C100.402 59.47 97.282 62.5 93.322 64.66C89.422 66.76 85.042 67.81 80.182 67.81ZM80.182 56.83C82.462 56.83 84.592 56.29 86.572 55.21C88.612 54.07 90.232 52.39 91.432 50.17C92.632 47.95 93.232 45.25 93.232 42.07C93.232 37.33 91.972 33.7 89.452 31.18C86.992 28.6 83.962 27.31 80.362 27.31C76.762 27.31 73.732 28.6 71.272 31.18C68.872 33.7 67.672 37.33 67.672 42.07C67.672 46.81 68.842 50.47 71.182 53.05C73.582 55.57 76.582 56.83 80.182 56.83ZM130.105 27.49V51.61C130.105 53.29 130.495 54.52 131.275 55.3C132.115 56.02 133.495 56.38 135.415 56.38H141.265V67H133.345C122.725 67 117.415 61.84 117.415 51.52V27.49H111.475V17.14H117.415V4.81H130.105V17.14H141.265V27.49H130.105ZM193.733 4.18C200.333 4.18 206.123 5.47 211.103 8.05C216.143 10.63 220.013 14.32 222.713 19.12C225.473 23.86 226.853 29.38 226.853 35.68C226.853 41.98 225.473 47.5 222.713 52.24C220.013 56.92 216.143 60.55 211.103 63.13C206.123 65.71 200.333 67 193.733 67H171.773V4.18H193.733ZM193.283 56.29C199.883 56.29 204.983 54.49 208.583 50.89C212.183 47.29 213.983 42.22 213.983 35.68C213.983 29.14 212.183 24.04 208.583 20.38C204.983 16.66 199.883 14.8 193.283 14.8H184.373V56.29H193.283ZM282.634 40.99C282.634 42.79 282.514 44.41 282.274 45.85H245.824C246.124 49.45 247.384 52.27 249.604 54.31C251.824 56.35 254.554 57.37 257.794 57.37C262.474 57.37 265.804 55.36 267.784 51.34H281.374C279.934 56.14 277.174 60.1 273.094 63.22C269.014 66.28 264.004 67.81 258.064 67.81C253.264 67.81 248.944 66.76 245.104 64.66C241.324 62.5 238.354 59.47 236.194 55.57C234.094 51.67 233.044 47.17 233.044 42.07C233.044 36.91 234.094 32.38 236.194 28.48C238.294 24.58 241.234 21.58 245.014 19.48C248.794 17.38 253.144 16.33 258.064 16.33C262.804 16.33 267.034 17.35 270.754 19.39C274.534 21.43 277.444 24.34 279.484 28.12C281.584 31.84 282.634 36.13 282.634 40.99ZM269.584 37.39C269.524 34.15 268.354 31.57 266.074 29.65C263.794 27.67 261.004 26.68 257.704 26.68C254.584 26.68 251.944 27.64 249.784 29.56C247.684 31.42 246.394 34.03 245.914 37.39H269.584ZM312.621 55.39L325.221 17.14H338.631L320.181 67H304.881L286.521 17.14H300.021L312.621 55.39ZM392.058 40.99C392.058 42.79 391.938 44.41 391.698 45.85H355.248C355.548 49.45 356.808 52.27 359.028 54.31C361.248 56.35 363.978 57.37 367.218 57.37C371.898 57.37 375.228 55.36 377.208 51.34H390.798C389.358 56.14 386.598 60.1 382.518 63.22C378.438 66.28 373.428 67.81 367.488 67.81C362.688 67.81 358.368 66.76 354.528 64.66C350.748 62.5 347.778 59.47 345.618 55.57C343.518 51.67 342.468 47.17 342.468 42.07C342.468 36.91 343.518 32.38 345.618 28.48C347.718 24.58 350.658 21.58 354.438 19.48C358.218 17.38 362.568 16.33 367.488 16.33C372.228 16.33 376.458 17.35 380.178 19.39C383.958 21.43 386.868 24.34 388.908 28.12C391.008 31.84 392.058 36.13 392.058 40.99ZM379.008 37.39C378.948 34.15 377.778 31.57 375.498 29.65C373.218 27.67 370.428 26.68 367.128 26.68C364.008 26.68 361.368 27.64 359.208 29.56C357.108 31.42 355.818 34.03 355.338 37.39H379.008ZM413.855 0.399999V67H401.255V0.399999H413.855ZM448.444 67.81C443.644 67.81 439.324 66.76 435.484 64.66C431.644 62.5 428.614 59.47 426.394 55.57C424.234 51.67 423.154 47.17 423.154 42.07C423.154 36.97 424.264 32.47 426.484 28.57C428.764 24.67 431.854 21.67 435.754 19.57C439.654 17.41 444.004 16.33 448.804 16.33C453.604 16.33 457.954 17.41 461.854 19.57C465.754 21.67 468.814 24.67 471.034 28.57C473.314 32.47 474.454 36.97 474.454 42.07C474.454 47.17 473.284 51.67 470.944 55.57C468.664 59.47 465.544 62.5 461.584 64.66C457.684 66.76 453.304 67.81 448.444 67.81ZM448.444 56.83C450.724 56.83 452.854 56.29 454.834 55.21C456.874 54.07 458.494 52.39 459.694 50.17C460.894 47.95 461.494 45.25 461.494 42.07C461.494 37.33 460.234 33.7 457.714 31.18C455.254 28.6 452.224 27.31 448.624 27.31C445.024 27.31 441.994 28.6 439.534 31.18C437.134 33.7 435.934 37.33 435.934 42.07C435.934 46.81 437.104 50.47 439.444 53.05C441.844 55.57 444.844 56.83 448.444 56.83ZM496.296 24.34C497.916 22.06 500.136 20.17 502.956 18.67C505.836 17.11 509.106 16.33 512.766 16.33C517.026 16.33 520.866 17.38 524.286 19.48C527.766 21.58 530.496 24.58 532.476 28.48C534.516 32.32 535.536 36.79 535.536 41.89C535.536 46.99 534.516 51.52 532.476 55.48C530.496 59.38 527.766 62.41 524.286 64.57C520.866 66.73 517.026 67.81 512.766 67.81C509.106 67.81 505.866 67.06 503.046 65.56C500.286 64.06 498.036 62.17 496.296 59.89V90.76H483.696V17.14H496.296V24.34ZM522.666 41.89C522.666 38.89 522.036 36.31 520.776 34.15C519.576 31.93 517.956 30.25 515.916 29.11C513.936 27.97 511.776 27.4 509.436 27.4C507.156 27.4 504.996 28 502.956 29.2C500.976 30.34 499.356 32.02 498.096 34.24C496.896 36.46 496.296 39.07 496.296 42.07C496.296 45.07 496.896 47.68 498.096 49.9C499.356 52.12 500.976 53.83 502.956 55.03C504.996 56.17 507.156 56.74 509.436 56.74C511.776 56.74 513.936 56.14 515.916 54.94C517.956 53.74 519.576 52.03 520.776 49.81C522.036 47.59 522.666 44.95 522.666 41.89ZM591.042 40.99C591.042 42.79 590.922 44.41 590.682 45.85H554.232C554.532 49.45 555.792 52.27 558.012 54.31C560.232 56.35 562.962 57.37 566.202 57.37C570.882 57.37 574.212 55.36 576.192 51.34H589.782C588.342 56.14 585.582 60.1 581.502 63.22C577.422 66.28 572.412 67.81 566.472 67.81C561.672 67.81 557.352 66.76 553.512 64.66C549.732 62.5 546.762 59.47 544.602 55.57C542.502 51.67 541.452 47.17 541.452 42.07C541.452 36.91 542.502 32.38 544.602 28.48C546.702 24.58 549.642 21.58 553.422 19.48C557.202 17.38 561.552 16.33 566.472 16.33C571.212 16.33 575.442 17.35 579.162 19.39C582.942 21.43 585.852 24.34 587.892 28.12C589.992 31.84 591.042 36.13 591.042 40.99ZM577.992 37.39C577.932 34.15 576.762 31.57 574.482 29.65C572.202 27.67 569.412 26.68 566.112 26.68C562.992 26.68 560.352 27.64 558.192 29.56C556.092 31.42 554.802 34.03 554.322 37.39H577.992ZM612.839 24.88C614.459 22.24 616.559 20.17 619.139 18.67C621.779 17.17 624.779 16.42 628.139 16.42V29.65H624.809C620.849 29.65 617.849 30.58 615.809 32.44C613.829 34.3 612.839 37.54 612.839 42.16V67H600.239V17.14H612.839V24.88Z" fill="url(#paint0_linear)"/>
<defs>
<linearGradient id="paint0_linear" x1="335" y1="-32" x2="335" y2="103" gradientUnits="userSpaceOnUse">
<stop stop-color="#E5E5E5"/>
<stop offset="1" stop-color="#E5E5E5" stop-opacity="0"/>
</linearGradient>
</defs>
</svg>
